<svg width="150px" height="50px" viewBox="0 0 1195.1903 287.6853" fill="#4737FF" xmlns="http://www.w3.org/2000/svg" xmlns:xlink= "http://www.w3.org/1999/xlink">
<g transform="matrix(1.3333333,0,0,-1.3333333,-606.14092,1008.2433)">
  <g transform="translate(548.0406,666.2825)">
    <path d="m 0,0 93.425,-53.946 v 17.992 L 0,17.972 Z" fill="#4737FF"/>
  </g>
  <g transform="translate(548.0406,702.2465)">
    <path d="m 0,0 93.425,-53.937 v 17.991 L 0,17.981 Z" fill="#4737FF"/>
  </g>
  <g transform="translate(548.0406,738.2105)">
    <path d="m 0,0 93.425,-53.946 v 17.982 L 0,17.972 Z" fill="#4737FF" />
  </g>
  <g transform="translate(594.7617,621.3185)">
    <path d="m 0,0 -93.417,-53.945 15.559,-8.99 93.436,53.945 z" fill="#4737FF" />
  </g>
  <g transform="translate(625.9156,603.3365)">
    <path d="m 0,0 -93.416,-53.936 15.541,-8.982 93.425,53.936 z" fill="#4737FF" />
  </g>
  <g transform="translate(563.6177,639.3015)">
    <path d="m 0,0 -93.427,-53.947 15.578,-8.981 93.424,53.935 z" fill="#4737FF" />
  </g>
  <g transform="translate(532.4626,639.3015)">
    <path d="m 0,0 v 107.899 l -15.577,-8.99 V -8.993 Z" fill="#4737FF" />
  </g>
  <g transform="translate(470.1737,603.3365)">
    <path d="M 0,0 V 107.901 L -15.568,98.91 V -8.982 Z" fill="#4737FF" />
  </g>
  <g transform="translate(501.3267,621.3185)">
    <path d="M 0,0 V 107.901 L -15.577,98.909 V -8.99 Z" fill="#4737FF" />
  </g>
  <g>
    <g>
      <g transform="translate(719.9396,618.2861)">
        <path d="m 0,0 c 6.56,0 11.589,2.473 15.088,7.42 3.497,4.947 5.248,11.985 5.248,21.115 0,8.856 -1.833,15.826 -5.494,20.91 -3.663,5.084 -8.61,7.626 -14.842,7.626 -3.991,0 -7.531,-0.861 -10.619,-2.583 -3.089,-1.722 -5.617,-4.196 -7.585,-7.421 V 10.003 c 2.405,-3.28 5.152,-5.768 8.241,-7.461 C -6.875,0.847 -3.554,0 0,0 M -34.522,-46.74 V 70.355 h 16.318 v -6.724 c 5.521,5.794 12.353,8.692 20.5,8.692 7.106,0 13.243,-1.777 18.409,-5.33 5.166,-3.554 9.156,-8.61 11.972,-15.17 C 35.492,45.263 36.9,37.5 36.9,28.535 36.9,19.624 35.465,11.875 32.595,5.288 29.725,-1.3 25.693,-6.396 20.5,-10.005 15.306,-13.612 9.211,-15.416 2.214,-15.416 c -4.264,0 -8.091,0.766 -11.48,2.296 -3.39,1.529 -6.369,3.881 -8.938,7.052 v -33.128 z" fill="#4737FF" />
      </g>
      <g transform="translate(808.0031,616.9736)">
        <path d="m 0,0 c 3.717,0 7.366,0.861 10.947,2.583 3.58,1.722 6.765,4.141 9.553,7.257 v 12.956 c -2.624,1.53 -5.604,2.733 -8.938,3.608 -3.335,0.873 -6.533,1.312 -9.594,1.312 -5.795,0 -10.36,-1.244 -13.694,-3.731 -3.335,-2.488 -5.002,-5.891 -5.002,-10.209 0,-4.264 1.476,-7.626 4.428,-10.086 C -9.348,1.23 -5.248,0 0,0 m -2.952,-14.104 c -9.13,0 -16.305,2.501 -21.525,7.503 -5.221,5.002 -7.831,11.821 -7.831,20.459 0,5.576 1.312,10.441 3.936,14.596 2.624,4.153 6.327,7.366 11.111,9.635 4.783,2.267 10.4,3.403 16.851,3.403 3.936,0 7.667,-0.41 11.193,-1.23 3.526,-0.82 6.765,-2.05 9.717,-3.69 v 5.658 c 0,5.904 -1.422,10.263 -4.264,13.079 -2.843,2.815 -7.189,4.223 -13.038,4.223 -4.046,0 -8.214,-0.738 -12.505,-2.214 -4.292,-1.476 -8.433,-3.554 -12.423,-6.232 l -4.756,13.366 c 4.428,2.897 9.416,5.152 14.965,6.765 5.548,1.612 11.083,2.419 16.605,2.419 10.386,0 18.163,-2.571 23.329,-7.708 5.166,-5.139 7.749,-12.821 7.749,-23.042 V -12.136 H 20.5 v 7.38 c -3.116,-3.007 -6.697,-5.317 -10.742,-6.929 -4.046,-1.612 -8.282,-2.419 -12.71,-2.419" fill="#4737FF" />
      </g>
      <g transform="translate(878.0319,573.0214)">
        <path d="m 0,0 12.792,33.702 -31.16,81.918 H -1.804 L 18.122,61.254 c 0.601,-1.367 1.093,-2.679 1.476,-3.936 0.381,-1.258 0.765,-2.624 1.148,-4.1 0.437,1.476 0.861,2.829 1.271,4.059 0.41,1.23 0.861,2.555 1.353,3.977 L 43.624,115.62 H 60.352 L 16.646,0 Z" fill="#4737FF" />
      </g>
      <g transform="translate(958.0607,604.8378)">
        <path d="m 0,0 v 83.804 h 16.318 v -7.872 c 2.514,3.279 5.589,5.739 9.225,7.38 3.635,1.64 7.721,2.459 12.259,2.459 4.92,0 9.293,-1.053 13.12,-3.156 3.826,-2.106 6.778,-5.098 8.856,-8.979 2.678,3.881 6.15,6.873 10.414,8.979 4.264,2.103 9.046,3.156 14.35,3.156 9.401,0 16.755,-2.775 22.058,-8.322 5.301,-5.55 7.954,-13.272 7.954,-23.165 V 0 H 98.235 v 49.2 c 0,6.996 -1.352,12.3 -4.058,15.907 -2.706,3.608 -6.657,5.413 -11.849,5.413 -3.499,0 -6.519,-0.861 -9.061,-2.583 -2.542,-1.723 -4.498,-4.21 -5.863,-7.462 -1.367,-3.254 -2.05,-7.094 -2.05,-11.521 V 0 H 49.036 v 49.2 c 0,7.105 -1.312,12.435 -3.936,15.989 -2.624,3.553 -6.588,5.331 -11.89,5.331 -5.358,0 -9.512,-1.832 -12.464,-5.495 -2.952,-3.663 -4.428,-8.856 -4.428,-15.58 V 0 Z" fill="#4737FF" />
      </g>
      <path d="m 1098.69,688.642 h 16.317 v -83.804 h -16.317 z m 8.118,13.693 c -2.735,0 -5.072,0.97 -7.012,2.912 -1.94,1.939 -2.911,4.276 -2.911,7.01 0,2.788 0.956,5.166 2.87,7.135 1.913,1.967 4.265,2.951 7.053,2.951 2.842,0 5.219,-0.984 7.134,-2.951 1.913,-1.969 2.87,-4.347 2.87,-7.135 0,-2.788 -0.957,-5.139 -2.87,-7.051 -1.915,-1.915 -4.292,-2.871 -7.134,-2.871" fill="#4737FF" />
      <g transform="translate(1171.0109,602.8701)">
        <path d="m 0,0 c -10.004,0 -17.521,3.005 -22.55,9.02 -5.03,6.012 -7.544,15.032 -7.544,27.059 v 49.692 h 16.319 V 36.817 c 0,-7.107 1.434,-12.451 4.304,-16.031 2.87,-3.581 7.12,-5.37 12.751,-5.37 6.122,0 10.701,1.763 13.736,5.288 3.034,3.526 4.55,8.787 4.55,15.785 V 85.771 H 37.885 V 1.968 H 21.566 V 9.922 C 18.942,6.531 15.88,4.03 12.383,2.419 8.883,0.807 4.757,0 0,0" fill="#4737FF" />
      </g>
      <g transform="translate(1236.4445,604.8378)">
        <path d="m 0,0 v 83.804 h 16.317 v -7.872 c 2.515,3.279 5.589,5.739 9.226,7.38 3.635,1.64 7.721,2.459 12.259,2.459 4.92,0 9.293,-1.053 13.12,-3.156 3.826,-2.106 6.777,-5.098 8.855,-8.979 2.679,3.881 6.151,6.873 10.414,8.979 4.265,2.103 9.047,3.156 14.351,3.156 9.401,0 16.755,-2.775 22.058,-8.322 5.301,-5.55 7.954,-13.272 7.954,-23.165 V 0 H 98.235 v 49.2 c 0,6.996 -1.352,12.3 -4.058,15.907 -2.706,3.608 -6.656,5.413 -11.849,5.413 -3.499,0 -6.519,-0.861 -9.061,-2.583 -2.542,-1.723 -4.497,-4.21 -5.864,-7.462 -1.366,-3.254 -2.049,-7.094 -2.049,-11.521 V 0 H 49.036 v 49.2 c 0,7.105 -1.312,12.435 -3.936,15.989 -2.624,3.553 -6.588,5.331 -11.89,5.331 -5.358,0 -9.512,-1.832 -12.464,-5.495 -2.952,-3.663 -4.429,-8.856 -4.429,-15.58 V 0 Z" fill="#4737FF" />
      </g>
    </g>
  </g>
</g>
</svg>